<?xml version="1.0" encoding="UTF-8"?>
<svg id="_레이어_1" data-name="레이어 1" xmlns="http://www.w3.org/2000/svg" version="1.1" viewBox="0 0 263.9 28">
  <defs>
    <style>
      .cls-1 {
        fill: #003a6f;
      }

      .cls-1, .cls-2 {
        stroke-width: 0px;
      }

      .cls-2 {
        fill: #009881;
      }
    </style>
  </defs>
  <g>
    <path class="cls-1" d="M114.4,10.2c.2-.8.3-1.6.3-2.2V2.5h-15.9v2.3h12.3v3.3c0,.7,0,1.4,0,2.1,0,.7-.2,1.3-.4,1.8h-14.2v2.3h8.4v3.6h-6.6v2.3h13.4v7.2h3.7v-9.5h-6.8v-3.6h10.5v-2.3h-5.3c.3-.4.5-.9.7-1.8Z"/>
    <path class="cls-1" d="M140.2,10.2c.2-.8.3-1.6.3-2.2V2.5h-15.9v2.3h12.3v3.3c0,.7,0,1.4,0,2.1,0,.7-.2,1.3-.4,1.8h-14.2v2.3h8.4v3.6h-6.6v2.3h13.4v7.2h3.7v-9.5h-6.8v-3.6h10.5v-2.3h-5.3c.3-.4.5-.9.7-1.8Z"/>
    <path class="cls-1" d="M199.5,14.7h10c.9,0,1.6-.3,2.1-.7.5-.4.8-1,.8-2V2.5h-3.7v3.8h-8.5v-3.8h-3.7v9.5c0,1,.3,1.5.8,2,.5.4,1.2.7,2.1.7ZM208.7,8.6v3.9h-8.5v-3.9h8.5Z"/>
    <path class="cls-1" d="M152.1,14.8h12.5v-2.3h-11.8v-2.8h11.4v-2.3h-11.4v-2.6h11.8v-2.3h-15.4v9.6c0,.8.3,1.5.8,2,.5.5,1.3.8,2.2.8Z"/>
    <path class="cls-1" d="M231.3,7.6c0,.7,0,1.4-.1,2.1,0,.7-.2,1.3-.5,1.8h3.1c.3-.3.6-.9.8-1.7.2-.8.3-1.6.3-2.3V2.5h-15.9v2.3h12.2v2.8Z"/>
    <polygon class="cls-1" points="226.2 8.3 222.6 8.3 222.6 13.1 216.3 13.1 216.3 15.4 237.9 15.4 237.9 13.1 226.2 13.1 226.2 8.3"/>
    <polygon class="cls-1" points="159.1 16.8 155.2 16.8 155.2 21 146.9 21 146.9 23.3 167.5 23.3 167.5 21 159.1 21 159.1 16.8"/>
    <polygon class="cls-1" points="206.3 16.8 202.6 16.8 202.6 21 194.4 21 194.4 23.3 214.6 23.3 214.6 21 206.3 21 206.3 16.8"/>
    <polygon class="cls-1" points="260.1 8.3 260.1 2.3 256.5 2.3 256.5 27.4 260.1 27.4 260.1 10.6 263.9 10.6 263.9 8.3 260.1 8.3"/>
    <polygon class="cls-1" points="186.5 6.7 182.5 6.7 182.5 9 186.5 9 186.5 15.3 190.2 15.3 190.2 2.4 186.5 2.4 186.5 6.7"/>
    <path class="cls-1" d="M176.8,11.5c2.2.4,5.1,1.9,6.6,3.3l1.5-1.9c-1.1-1.2-4.7-3.2-6.6-3.8.3-.8.5-1.7.5-2.7v-1.4h4.3v-2.3h-12.3v2.3h4.3v1.4c0,1.7-.7,5.3-5.2,6.2v2.3c.6,0,1.1-.1,1.6-.2,1.9-.5,3.9-1.5,5.3-3.1Z"/>
    <polygon class="cls-1" points="90.5 2.3 86.8 2.3 86.8 18 90.5 18 90.5 10.4 94 10.4 94 8.1 90.5 8.1 90.5 2.3"/>
    <path class="cls-1" d="M78.8,18.8h-3.7v5.8c0,.8.3,1.5.8,2,.6.5,1.3.7,2.1.7h13.4v-2.3h-12.7v-6.2Z"/>
    <path class="cls-1" d="M188.1,18c-1.4-1.1-3-1.7-5-1.7s-3.6.6-5,1.7c-1.4,1.1-2.1,2.5-2.1,4.1s.7,3,2.1,4.1c1.4,1.1,3,1.7,5,1.7s3.6-.6,5-1.7c1.4-1.1,2-2.5,2-4.1s-.7-3-2-4.1ZM183.1,25.7c-1.8,0-3.3-1.6-3.3-3.5s1.5-3.6,3.3-3.6,3.3,1.6,3.3,3.6-1.5,3.5-3.3,3.5Z"/>
    <path class="cls-1" d="M232,18c-1.4-1.1-3-1.7-5-1.7s-3.6.6-5,1.7c-1.4,1.1-2,2.5-2,4.1s.7,3,2,4.1c1.4,1.1,3,1.7,5,1.7s3.6-.6,5-1.7c1.4-1.1,2.1-2.5,2.1-4.1s-.7-3-2.1-4.1ZM227,25.7c-1.8,0-3.3-1.6-3.3-3.5s1.5-3.6,3.3-3.6,3.3,1.6,3.3,3.6-1.5,3.5-3.3,3.5Z"/>
    <path class="cls-1" d="M81.7,14.2c1.3-1.1,2-2.5,2-4s-.6-2.7-1.7-3.8h2v-2.3h-5.4v-1.8h-3.7v1.8h-5.4v2.3h2.2c-1.2,1.1-1.7,2.3-1.7,3.8s.7,2.9,2,4c1.3,1.1,3,1.7,4.9,1.7s3.5-.6,4.9-1.7ZM73.6,10.2c0-1.9,1.5-3.5,3.3-3.5s3.3,1.6,3.3,3.5-1.5,3.5-3.3,3.5-3.3-1.6-3.3-3.5Z"/>
    <path class="cls-1" d="M249.1,10.7c.2-.7.4-1.5.4-2.5V2.5h-3.8v5c0,3-1.1,5.8-5.2,6.7v2.5c1.3,0,3.8-.9,5-1.8.5-.4,1.3-.9,2-1.7,2.1.8,4.1,2.2,5.5,3.7l1.8-1.9c-.8-1.4-3.8-3.5-5.7-4.4Z"/>
  </g>
  <path class="cls-2" d="M51.8,14.6c-.4-.4-.8-.8-1.2-1.2.3-.3.5-.5.8-.9L61.7,0h-8.9l-6,7.3c-1.6,2-2.6,2.8-4.4,2.8s-2.8-.8-4.4-2.8L32.2,0h-8.9s10.4,12.6,10.4,12.6c.3.3.6.6.8.9-.4.3-.8.7-1.2,1.2l-5.3,6.1h-10.5c-6,0-9.8-3.6-9.8-9.4V.3H0v11C0,24.3,9.3,27.6,17.2,27.6h12.8c1,0,1.5-.2,2-.8l5.9-6.8c1.7-1.9,2.7-2.8,4.6-2.8s2.9.8,4.6,2.8l6.6,7.7h9.3l-11.2-13Z"/>
</svg>