<svg xmlns="http://www.w3.org/2000/svg" viewBox="0 0 175.59 73.84"><defs><style>.cls-1{fill:#005293;}.cls-2{fill:#0086ce;}.cls-3{fill:#f6ac00;}.cls-4{fill:#fff;}</style></defs><g id="레이어_2" data-name="레이어 2"><g id="Layer_1" data-name="Layer 1"><path class="cls-1" d="M106.87,35.74l-9.62-8.82h0a3.2,3.2,0,0,1-1.08-2.39,3.43,3.43,0,0,1,3.52-3.33h10.64V16.6H94.06c-5,0-9.24,3.4-9.24,8.72a8.41,8.41,0,0,0,2.43,5.89L98.58,41.9a3.46,3.46,0,0,1,1.25,3.65c-.67,2.27-3.56,2.27-4.64,2.27H84.82v9.33h15.73c6.36,0,11.52-4.87,11.52-10.87V46.2c.18-4.49-2.24-7.71-5.2-10.46"/><path class="cls-1" d="M170.37,35.74l-9.61-8.82h0a3.17,3.17,0,0,1-1.09-2.39,3.43,3.43,0,0,1,3.53-3.33h10.63V16.6H157.57c-5,0-9.24,3.4-9.24,8.72a8.41,8.41,0,0,0,2.43,5.89L162.08,41.9a3.46,3.46,0,0,1,1.25,3.65c-.66,2.28-3.55,2.28-4.64,2.28H148.33v9.32h15.73c6.36,0,11.52-4.86,11.52-10.87V46.2c.17-4.49-2.24-7.71-5.21-10.46"/><path class="cls-1" d="M146.13,45.38A11.79,11.79,0,0,0,138,34a8.3,8.3,0,0,0,6.26-8.55,8.33,8.33,0,0,0-3.48-6.81c-3.06-2.1-7.63-1.94-7.63-1.94h-18v40.5h19.1A13.54,13.54,0,0,0,142,54.38,12,12,0,0,0,146.13,45.38ZM124.88,21.27h4.3c.66,0,5.16,0,5.54,4.39.26,3.14-1.87,5.1-5.33,5.1h-4.51V21.27Zm5.17,26.56h-5.17V37h5c.65,0,5.68,0,6.05,5C136.17,45.6,133.51,47.83,130.05,47.83Z"/><path class="cls-2" d="M73.34,42.31c.9-8.84.67-10.87-3.94-17.11-1.16-1.57-2.06-3-.48-2.57s.38-2.9,1.74-2.08C68.52,10.72,56.72,4.88,47.72,1.62L41.34.23c-1.19,0-2.84-.23-4-.23-7.56,1-14.67,1-21,5.45-1.89,1.41-3.76,4-5.89,5.83-1.18,1.18-1.65,2.11-2.83,3.29C2.82,20.43.7,27,0,34.24-.2,48.76,4.72,60,18.42,67.51c1.47.81,11.44,5.52,16.69,6.18,6.21.78,14.55-1.61,16.91-2.78,1.89-1.41,3.9-1.29,5.31-2.93,1.18-1.18,3.94-3,4.65-4.39C65.28,58.2,74.3,48.62,73.34,42.31Z"/><path class="cls-3" d="M59.65,39.31c.54-5.3.41-6.52-2.36-10.26-.7-.95-1.24-1.8-.28-1.54s1.14-.91,1-1.25c-1.29-5.9-8.37-9.4-13.77-11.36l-3.83-.84c-.71,0-1.7-.14-2.41-.13-4.54.57-8.81.59-12.64,3.27-1.13.84-2.26,2.37-3.53,3.5-.71.7-1,1.26-1.7,2a21.34,21.34,0,0,0-4.52,11.81c-.12,8.7,2.83,15.45,11,20,.89.48,6.87,3.31,10,3.7a22.85,22.85,0,0,0,10.15-1.66c1.14-.85,2.34-.78,3.19-1.77.71-.71,2.36-1.79,2.79-2.63C54.82,48.85,60.23,43.1,59.65,39.31Z"/><path class="cls-4" d="M22.4,29.7a16.24,16.24,0,0,1,21.68-7.19A15.92,15.92,0,0,1,51.35,44a16.26,16.26,0,0,1-21.68,7.2A15.93,15.93,0,0,1,22.4,29.7Z"/></g></g></svg>